<svg width="24" height="15" viewBox="0 0 24 15" fill="none" xmlns="http://www.w3.org/2000/svg">
<path d="M22.7068 1.82754C22.8609 1.31484 22.7068 0.9375 21.9651 0.9375H19.5109C18.8859 0.9375 18.5984 1.26152 18.4443 1.62246C18.4443 1.62246 17.1943 4.6207 15.4276 6.56484C14.8568 7.12676 14.5943 7.30723 14.2818 7.30723C14.1276 7.30723 13.8901 7.12676 13.8901 6.61406V1.82754C13.8901 1.2123 13.7151 0.9375 13.1984 0.9375H9.34011C8.94844 0.9375 8.71511 1.22461 8.71511 1.49121C8.71511 2.07363 9.59844 2.20898 9.69011 3.84961V7.40977C9.69011 8.18906 9.54844 8.33262 9.23594 8.33262C8.40261 8.33262 6.37761 5.32207 5.17761 1.87676C4.93594 1.2082 4.69844 0.9375 4.06927 0.9375H1.6151C0.915104 0.9375 0.773438 1.26152 0.773438 1.62246C0.773438 2.2623 1.60677 5.44102 4.65261 9.64102C6.68177 12.508 9.54011 14.0625 12.1401 14.0625C13.7026 14.0625 13.8943 13.718 13.8943 13.1232C13.8943 10.3834 13.7526 10.125 14.5359 10.125C14.8984 10.125 15.5234 10.3055 16.9818 11.6877C18.6484 13.3283 18.9234 14.0625 19.8568 14.0625H22.3109C23.0109 14.0625 23.3651 13.718 23.1609 13.0371C22.6943 11.6057 19.5401 8.66074 19.3984 8.46387C19.0359 8.00449 19.1401 7.79941 19.3984 7.38926C19.4026 7.38516 22.3984 3.23437 22.7068 1.82754Z" fill="white"/>
</svg>
